<mxfile host="app.diagrams.net" agent="Mozilla/5.0 (Windows NT 10.0; Win64; x64) AppleWebKit/537.36 (KHTML, like Gecko) Chrome/134.0.0.0 Safari/537.36" version="27.0.4">
  <diagram name="StrÃ¡nka-1" id="HjDbOOjw89uiU3aTqyw2">
    <mxGraphModel dx="807" dy="299" grid="1" gridSize="10" guides="1" tooltips="1" connect="1" arrows="1" fold="1" page="1" pageScale="1" pageWidth="827" pageHeight="1169" math="0" shadow="0">
      <root>
        <mxCell id="0" />
        <mxCell id="1" parent="0" />
        <mxCell id="DaRzOiwz3Ewju9DiCdrb-26" style="edgeStyle=none;shape=connector;rounded=0;orthogonalLoop=1;jettySize=auto;html=1;strokeColor=default;align=center;verticalAlign=middle;fontFamily=Helvetica;fontSize=11;fontColor=default;labelBackgroundColor=default;startFill=0;endArrow=none;entryX=0.5;entryY=0;entryDx=0;entryDy=0;" edge="1" parent="1" source="DaRzOiwz3Ewju9DiCdrb-1" target="DaRzOiwz3Ewju9DiCdrb-52">
          <mxGeometry relative="1" as="geometry">
            <mxPoint x="235" y="249" as="targetPoint" />
          </mxGeometry>
        </mxCell>
        <mxCell id="DaRzOiwz3Ewju9DiCdrb-1" value="Master 1" style="image;sketch=0;aspect=fixed;html=1;points=[];align=center;fontSize=12;image=img/lib/mscae/Cache_Redis_Product.svg;" vertex="1" parent="1">
          <mxGeometry x="210" y="100" width="50" height="42" as="geometry" />
        </mxCell>
        <mxCell id="DaRzOiwz3Ewju9DiCdrb-31" style="edgeStyle=none;shape=connector;rounded=0;orthogonalLoop=1;jettySize=auto;html=1;strokeColor=default;align=center;verticalAlign=middle;fontFamily=Helvetica;fontSize=11;fontColor=default;labelBackgroundColor=default;startFill=0;endArrow=none;entryX=0.5;entryY=0;entryDx=0;entryDy=0;" edge="1" parent="1" target="DaRzOiwz3Ewju9DiCdrb-53">
          <mxGeometry relative="1" as="geometry">
            <mxPoint x="350.86" y="83.00000000000006" as="sourcePoint" />
            <mxPoint x="350.86" y="292" as="targetPoint" />
          </mxGeometry>
        </mxCell>
        <mxCell id="DaRzOiwz3Ewju9DiCdrb-37" style="edgeStyle=none;shape=connector;rounded=0;orthogonalLoop=1;jettySize=auto;html=1;strokeColor=default;align=center;verticalAlign=middle;fontFamily=Helvetica;fontSize=11;fontColor=default;labelBackgroundColor=default;startFill=0;endArrow=none;" edge="1" parent="1" source="DaRzOiwz3Ewju9DiCdrb-2" target="DaRzOiwz3Ewju9DiCdrb-1">
          <mxGeometry relative="1" as="geometry" />
        </mxCell>
        <mxCell id="DaRzOiwz3Ewju9DiCdrb-38" style="edgeStyle=none;shape=connector;rounded=0;orthogonalLoop=1;jettySize=auto;html=1;strokeColor=default;align=center;verticalAlign=middle;fontFamily=Helvetica;fontSize=11;fontColor=default;labelBackgroundColor=default;startFill=0;endArrow=none;" edge="1" parent="1" source="DaRzOiwz3Ewju9DiCdrb-2" target="DaRzOiwz3Ewju9DiCdrb-3">
          <mxGeometry relative="1" as="geometry" />
        </mxCell>
        <mxCell id="DaRzOiwz3Ewju9DiCdrb-2" value="Master 2" style="image;sketch=0;aspect=fixed;html=1;points=[];align=center;fontSize=12;image=img/lib/mscae/Cache_Redis_Product.svg;" vertex="1" parent="1">
          <mxGeometry x="326" y="40" width="50" height="42" as="geometry" />
        </mxCell>
        <mxCell id="DaRzOiwz3Ewju9DiCdrb-46" style="edgeStyle=none;shape=connector;rounded=0;orthogonalLoop=1;jettySize=auto;html=1;strokeColor=default;align=center;verticalAlign=middle;fontFamily=Helvetica;fontSize=11;fontColor=default;labelBackgroundColor=default;startFill=0;endArrow=none;" edge="1" parent="1" source="DaRzOiwz3Ewju9DiCdrb-3" target="DaRzOiwz3Ewju9DiCdrb-1">
          <mxGeometry relative="1" as="geometry" />
        </mxCell>
        <mxCell id="DaRzOiwz3Ewju9DiCdrb-3" value="Master 3" style="image;sketch=0;aspect=fixed;html=1;points=[];align=center;fontSize=12;image=img/lib/mscae/Cache_Redis_Product.svg;" vertex="1" parent="1">
          <mxGeometry x="430" y="100" width="50" height="42" as="geometry" />
        </mxCell>
        <mxCell id="DaRzOiwz3Ewju9DiCdrb-35" style="edgeStyle=none;shape=connector;rounded=0;orthogonalLoop=1;jettySize=auto;html=1;strokeColor=default;align=center;verticalAlign=middle;fontFamily=Helvetica;fontSize=11;fontColor=default;labelBackgroundColor=default;startFill=0;endArrow=none;dashed=1;exitX=1;exitY=0.75;exitDx=0;exitDy=0;entryX=0;entryY=0.5;entryDx=0;entryDy=0;" edge="1" parent="1" source="DaRzOiwz3Ewju9DiCdrb-52" target="DaRzOiwz3Ewju9DiCdrb-53">
          <mxGeometry relative="1" as="geometry">
            <mxPoint x="271" y="294.0344827586207" as="sourcePoint" />
            <mxPoint x="315" y="310.53846153846155" as="targetPoint" />
          </mxGeometry>
        </mxCell>
        <mxCell id="DaRzOiwz3Ewju9DiCdrb-39" style="edgeStyle=none;shape=connector;rounded=0;orthogonalLoop=1;jettySize=auto;html=1;strokeColor=default;align=center;verticalAlign=middle;fontFamily=Helvetica;fontSize=11;fontColor=default;labelBackgroundColor=default;startFill=0;endArrow=none;dashed=1;exitX=0.5;exitY=0;exitDx=0;exitDy=0;" edge="1" parent="1" source="DaRzOiwz3Ewju9DiCdrb-52" target="DaRzOiwz3Ewju9DiCdrb-2">
          <mxGeometry relative="1" as="geometry">
            <mxPoint x="251.87272727272716" y="249" as="sourcePoint" />
          </mxGeometry>
        </mxCell>
        <mxCell id="DaRzOiwz3Ewju9DiCdrb-40" style="edgeStyle=none;shape=connector;rounded=0;orthogonalLoop=1;jettySize=auto;html=1;dashed=1;strokeColor=default;align=center;verticalAlign=middle;fontFamily=Helvetica;fontSize=11;fontColor=default;labelBackgroundColor=default;startFill=0;endArrow=none;exitX=1;exitY=0.25;exitDx=0;exitDy=0;" edge="1" parent="1" source="DaRzOiwz3Ewju9DiCdrb-52" target="DaRzOiwz3Ewju9DiCdrb-3">
          <mxGeometry relative="1" as="geometry">
            <mxPoint x="271" y="254.81818181818176" as="sourcePoint" />
          </mxGeometry>
        </mxCell>
        <mxCell id="DaRzOiwz3Ewju9DiCdrb-41" style="edgeStyle=none;shape=connector;rounded=0;orthogonalLoop=1;jettySize=auto;html=1;dashed=1;strokeColor=default;align=center;verticalAlign=middle;fontFamily=Helvetica;fontSize=11;fontColor=default;labelBackgroundColor=default;startFill=0;endArrow=none;exitX=1;exitY=0.5;exitDx=0;exitDy=0;entryX=0;entryY=0.5;entryDx=0;entryDy=0;" edge="1" parent="1" source="DaRzOiwz3Ewju9DiCdrb-52" target="DaRzOiwz3Ewju9DiCdrb-54">
          <mxGeometry relative="1" as="geometry">
            <mxPoint x="271" y="281" as="sourcePoint" />
            <mxPoint x="418.9999999999998" y="281" as="targetPoint" />
          </mxGeometry>
        </mxCell>
        <mxCell id="DaRzOiwz3Ewju9DiCdrb-42" style="edgeStyle=none;shape=connector;rounded=0;orthogonalLoop=1;jettySize=auto;html=1;dashed=1;strokeColor=default;align=center;verticalAlign=middle;fontFamily=Helvetica;fontSize=11;fontColor=default;labelBackgroundColor=default;startFill=0;endArrow=none;exitX=0.5;exitY=0;exitDx=0;exitDy=0;entryX=0.777;entryY=1.003;entryDx=0;entryDy=0;entryPerimeter=0;" edge="1" parent="1" source="DaRzOiwz3Ewju9DiCdrb-53" target="DaRzOiwz3Ewju9DiCdrb-1">
          <mxGeometry relative="1" as="geometry">
            <mxPoint x="332.62376237623744" y="291" as="sourcePoint" />
          </mxGeometry>
        </mxCell>
        <mxCell id="DaRzOiwz3Ewju9DiCdrb-43" style="edgeStyle=none;shape=connector;rounded=0;orthogonalLoop=1;jettySize=auto;html=1;dashed=1;strokeColor=default;align=center;verticalAlign=middle;fontFamily=Helvetica;fontSize=11;fontColor=default;labelBackgroundColor=default;startFill=0;endArrow=none;exitX=0.5;exitY=0;exitDx=0;exitDy=0;" edge="1" parent="1" source="DaRzOiwz3Ewju9DiCdrb-53" target="DaRzOiwz3Ewju9DiCdrb-3">
          <mxGeometry relative="1" as="geometry">
            <mxPoint x="367.4752475247524" y="291" as="sourcePoint" />
          </mxGeometry>
        </mxCell>
        <mxCell id="DaRzOiwz3Ewju9DiCdrb-36" style="edgeStyle=none;shape=connector;rounded=0;orthogonalLoop=1;jettySize=auto;html=1;strokeColor=default;align=center;verticalAlign=middle;fontFamily=Helvetica;fontSize=11;fontColor=default;labelBackgroundColor=default;startFill=0;endArrow=none;dashed=1;entryX=1;entryY=0.25;entryDx=0;entryDy=0;exitX=0;exitY=0.75;exitDx=0;exitDy=0;" edge="1" parent="1" source="DaRzOiwz3Ewju9DiCdrb-54" target="DaRzOiwz3Ewju9DiCdrb-53">
          <mxGeometry relative="1" as="geometry">
            <mxPoint x="418.9999999999998" y="294.44303797468353" as="sourcePoint" />
            <mxPoint x="387.0000000000002" y="308.46153846153834" as="targetPoint" />
          </mxGeometry>
        </mxCell>
        <mxCell id="DaRzOiwz3Ewju9DiCdrb-44" style="edgeStyle=none;shape=connector;rounded=0;orthogonalLoop=1;jettySize=auto;html=1;dashed=1;strokeColor=default;align=center;verticalAlign=middle;fontFamily=Helvetica;fontSize=11;fontColor=default;labelBackgroundColor=default;startFill=0;endArrow=none;exitX=0.038;exitY=0.262;exitDx=0;exitDy=0;exitPerimeter=0;" edge="1" parent="1" source="DaRzOiwz3Ewju9DiCdrb-54" target="DaRzOiwz3Ewju9DiCdrb-1">
          <mxGeometry relative="1" as="geometry">
            <mxPoint x="418.9999999999998" y="254.81818181818176" as="sourcePoint" />
          </mxGeometry>
        </mxCell>
        <mxCell id="DaRzOiwz3Ewju9DiCdrb-45" style="edgeStyle=none;shape=connector;rounded=0;orthogonalLoop=1;jettySize=auto;html=1;dashed=1;strokeColor=default;align=center;verticalAlign=middle;fontFamily=Helvetica;fontSize=11;fontColor=default;labelBackgroundColor=default;startFill=0;endArrow=none;exitX=0.5;exitY=0;exitDx=0;exitDy=0;" edge="1" parent="1" source="DaRzOiwz3Ewju9DiCdrb-54" target="DaRzOiwz3Ewju9DiCdrb-2">
          <mxGeometry relative="1" as="geometry">
            <mxPoint x="439.8727272727274" y="249" as="sourcePoint" />
          </mxGeometry>
        </mxCell>
        <mxCell id="DaRzOiwz3Ewju9DiCdrb-49" style="edgeStyle=none;shape=connector;rounded=0;orthogonalLoop=1;jettySize=auto;html=1;dashed=1;strokeColor=default;align=center;verticalAlign=middle;fontFamily=Helvetica;fontSize=11;fontColor=default;labelBackgroundColor=default;startFill=0;endArrow=none;exitX=0.5;exitY=0;exitDx=0;exitDy=0;" edge="1" parent="1" source="DaRzOiwz3Ewju9DiCdrb-54" target="DaRzOiwz3Ewju9DiCdrb-3">
          <mxGeometry relative="1" as="geometry">
            <mxPoint x="455" y="249" as="sourcePoint" />
          </mxGeometry>
        </mxCell>
        <mxCell id="DaRzOiwz3Ewju9DiCdrb-52" value="Slave 1" style="shape=image;verticalLabelPosition=bottom;labelBackgroundColor=default;verticalAlign=top;aspect=fixed;imageAspect=0;editableCssRules=.*;image=data:image/svg+xml,PHN2ZyB4bWxuczp4bGluaz0iaHR0cDovL3d3dy53My5vcmcvMTk5OS94bGluayIgeG1sbnM9Imh0dHA6Ly93d3cudzMub3JnLzIwMDAvc3ZnIiBoZWlnaHQ9IjQyLjEzOTAwMzc1MzY2MjExIiB3aWR0aD0iNTAuMDAzMDY3MDE2NjAxNTYiIHZpZXdCb3g9Ii0wLjAwMDUwMDA4Mjk2OTY2NTUyNzMgMC4wMDA1MDAwMjMzNjUwMjA3NTIgNTAuMDAzMDY3MDE2NjAxNTYgNDIuMTM5MDAzNzUzNjYyMTEiPiYjeGE7ICAgIDxnIGZpbGw9IiM3MDZkNmQiPiYjeGE7ICAgICAgICA8dXNlIHhsaW5rOmhyZWY9IiNCIi8+JiN4YTsgICAgICAgIDxwYXRoIGQ9Ik00OC42MjggMjUuNzRjMS44My43NSAxLjgzIDEuOTY1IDAgMi43MTRsLTIwLjMxNiA4LjMyNGMtMS44My43NS00Ljc5NS43NS02LjYyNSAwTDEuMzcyIDI4LjQ1M2MtMS44My0uNzUtMS44My0xLjk2NSAwLTIuNzE0bDIwLjMxNi04LjMyNGMxLjgzLS43NSA0Ljc5NS0uNzUgNi42MjUgMGwyMC4zMTUgOC4zMjR6Ii8+JiN4YTsgICAgICAgIDx1c2UgeGxpbms6aHJlZj0iI0MiLz4mI3hhOyAgICAgICAgPHBhdGggZD0iTTQ4LjYyOCAxNy4zMTNjMS44My43NSAxLjgzIDEuOTY1IDAgMi43MTRMMjguMzEyIDI4LjM1Yy0xLjgzLjc1LTQuNzk1Ljc1LTYuNjI1IDBMMS4zNzIgMjAuMDI3Yy0xLjgzLS43NS0xLjgzLTEuOTY1IDAtMi43MTRMMjEuNjg4IDguOTljMS44My0uNzUgNC43OTUtLjc1IDYuNjI1IDBsMjAuMzE1IDguMzI0eiIvPiYjeGE7ICAgICAgICA8dXNlIHhsaW5rOmhyZWY9IiNEIi8+JiN4YTsgICAgPC9nPiYjeGE7ICAgIDxnIGZpbGw9IiMxZTFlMWUiPiYjeGE7ICAgICAgICA8dXNlIG9wYWNpdHk9Ii4yNSIgeGxpbms6aHJlZj0iI0IiLz4mI3hhOyAgICAgICAgPHVzZSBvcGFjaXR5PSIuMjUiIHhsaW5rOmhyZWY9IiNDIi8+JiN4YTsgICAgICAgIDx1c2Ugb3BhY2l0eT0iLjI1IiB4bGluazpocmVmPSIjRCIvPiYjeGE7ICAgIDwvZz4mI3hhOyAgICA8cGF0aCBmaWxsPSIjNzA2ZDZkIiBkPSJNNDguNjI4IDguODg3YzEuODMuNzUgMS44MyAxLjk2NSAwIDIuNzE0bC0yMC4zMTYgOC4zMjRjLTEuODMuNzUtNC43OTUuNzUtNi42MjUgMEwxLjM3MiAxMS42Yy0xLjgzLS43NS0xLjgzLTEuOTY1IDAtMi43MTRMMjEuNjg4LjU2M2MxLjgzLS43NSA0Ljc5NS0uNzUgNi42MjUgMGwyMC4zMTUgOC4zMjR6Ii8+JiN4YTsgICAgPHBhdGggZmlsbD0iI2ZmZiIgZD0iTTE4Ljc0IDExLjgxM2MtMi4zMiAxLjAzLTYuMDc4IDEuMDMtOC4zOTYgMHMtMi4zMi0yLjcwMyAwLTMuNzM1IDYuMDc4LTEuMDMgOC4zOTYgMCAyLjMyIDIuNzA0IDAgMy43MzV6bS0xLjU3MyAyLjY1N2wxMS44OTgtMS40MTgtMy4xODggNS4yOTJ6Ii8+JiN4YTsgICAgPGcgZmlsbD0iIzFlMWUxZSI+JiN4YTsgICAgICAgIDxwYXRoIG9wYWNpdHk9Ii4yNSIgZD0iTTQyLjkyNiA5Ljk3NEwzNS44IDEzLjEzOGwtNy4xMTUtMy4xNjVMMzUuOCA2LjgxeiIvPiYjeGE7ICAgICAgICA8cGF0aCBvcGFjaXR5PSIuMjUiIGQ9Ik0zNS44IDEzLjEzOGwtNy4xMTUtMy4xNjVMMzUuOCA2LjgxeiIvPiYjeGE7ICAgIDwvZz4mI3hhOyAgICA8cGF0aCBmaWxsPSIjZmZmIiBkPSJNMjEuNjYgMi41NTJsMy40OTUgMS40MjUgNC4zMTQtLjg3NC0xLjk2NiAxLjkxOCAzLjIwMyAxLjU1NS00LjctLjI0LTIuMzM1IDEuODM2LS45NDUtMi4wNjctNC42NDUtLjQyIDQuMTI2LTEuMDM4eiIvPiYjeGE7ICAgIDxkZWZzPiYjeGE7ICAgICAgICA8cGF0aCBkPSJNLjAxIDMxLjc3Yy0uMDg1LjUzMi4zNyAxLjA3NiAxLjM2MiAxLjQ4M2wyMC4zMTYgOC4zMjRjMS44My43NSA0Ljc5NS43NSA2LjYyNSAwbDIwLjMxNi04LjMyNGMuOTkzLS40MDcgMS40NDctLjk1IDEuMzYyLTEuNDgzbC4wMDUtNC43NjhjLjA2Mi41MjItLjM5NCAxLjA1Mi0xLjM2NyAxLjQ1bC0yMC4zMTYgOC4zMjRjLTEuODMuNzUtNC43OTUuNzUtNi42MjUgMEwxLjM3MiAyOC40NTNDLjMwNCAyOC4wMTUtLjE0IDI3LjQyLjA0IDI2Ljg1bC0uMDMgNC45MnoiIGlkPSJCIi8+JiN4YTsgICAgICAgIDxwYXRoIGQ9Ik0uMDEgMjMuMzQ0Yy0uMDg1LjUzMi4zNyAxLjA3NiAxLjM2MiAxLjQ4M2wyMC4zMTYgOC4zMjRjMS44My43NSA0Ljc5NS43NSA2LjYyNSAwbDIwLjMxNi04LjMyNGMuOTkzLS40MDcgMS40NDctLjk1IDEuMzYyLTEuNDgzbC4wMDUtNC43NjhjLjA2Mi41MjItLjM5NCAxLjA1Mi0xLjM2NyAxLjQ1TDI4LjMxMyAyOC4zNWMtMS44My43NS00Ljc5NS43NS02LjYyNSAwTDEuMzcyIDIwLjAyN0MuMzA0IDE5LjU5LS4xNCAxOC45OTMuMDQgMTguNDIzbC0uMDMgNC45MnoiIGlkPSJDIi8+JiN4YTsgICAgICAgIDxwYXRoIGQ9Ik0uMDEgMTQuOTE4Yy0uMDg1LjUzMi4zNyAxLjA3NiAxLjM2MiAxLjQ4M2wyMC4zMTYgOC4zMjRjMS44My43NSA0Ljc5NS43NSA2LjYyNSAwTDQ4LjYzIDE2LjRjLjk5My0uNDA3IDEuNDQ3LS45NSAxLjM2Mi0xLjQ4M2wuMDA1LTQuNzY4Yy4wNjIuNTIyLS4zOTQgMS4wNTItMS4zNjcgMS40NWwtMjAuMzE2IDguMzI0Yy0xLjgzLjc1LTQuNzk1Ljc1LTYuNjI1IDBMMS4zNzIgMTEuNkMuMzA0IDExLjE2My0uMTQgMTAuNTY3LjA0IDkuOTk3bC0uMDMgNC45MnoiIGlkPSJEIi8+JiN4YTsgICAgPC9kZWZzPiYjeGE7PC9zdmc+;" vertex="1" parent="1">
          <mxGeometry x="210" y="260" width="50" height="42" as="geometry" />
        </mxCell>
        <mxCell id="DaRzOiwz3Ewju9DiCdrb-53" value="Slave 2" style="shape=image;verticalLabelPosition=bottom;labelBackgroundColor=default;verticalAlign=top;aspect=fixed;imageAspect=0;editableCssRules=.*;image=data:image/svg+xml,PHN2ZyB4bWxuczp4bGluaz0iaHR0cDovL3d3dy53My5vcmcvMTk5OS94bGluayIgeG1sbnM9Imh0dHA6Ly93d3cudzMub3JnLzIwMDAvc3ZnIiBoZWlnaHQ9IjQyLjEzOTAwMzc1MzY2MjExIiB3aWR0aD0iNTAuMDAzMDY3MDE2NjAxNTYiIHZpZXdCb3g9Ii0wLjAwMDUwMDA4Mjk2OTY2NTUyNzMgMC4wMDA1MDAwMjMzNjUwMjA3NTIgNTAuMDAzMDY3MDE2NjAxNTYgNDIuMTM5MDAzNzUzNjYyMTEiPiYjeGE7ICAgIDxnIGZpbGw9IiM3MDZkNmQiPiYjeGE7ICAgICAgICA8dXNlIHhsaW5rOmhyZWY9IiNCIi8+JiN4YTsgICAgICAgIDxwYXRoIGQ9Ik00OC42MjggMjUuNzRjMS44My43NSAxLjgzIDEuOTY1IDAgMi43MTRsLTIwLjMxNiA4LjMyNGMtMS44My43NS00Ljc5NS43NS02LjYyNSAwTDEuMzcyIDI4LjQ1M2MtMS44My0uNzUtMS44My0xLjk2NSAwLTIuNzE0bDIwLjMxNi04LjMyNGMxLjgzLS43NSA0Ljc5NS0uNzUgNi42MjUgMGwyMC4zMTUgOC4zMjR6Ii8+JiN4YTsgICAgICAgIDx1c2UgeGxpbms6aHJlZj0iI0MiLz4mI3hhOyAgICAgICAgPHBhdGggZD0iTTQ4LjYyOCAxNy4zMTNjMS44My43NSAxLjgzIDEuOTY1IDAgMi43MTRMMjguMzEyIDI4LjM1Yy0xLjgzLjc1LTQuNzk1Ljc1LTYuNjI1IDBMMS4zNzIgMjAuMDI3Yy0xLjgzLS43NS0xLjgzLTEuOTY1IDAtMi43MTRMMjEuNjg4IDguOTljMS44My0uNzUgNC43OTUtLjc1IDYuNjI1IDBsMjAuMzE1IDguMzI0eiIvPiYjeGE7ICAgICAgICA8dXNlIHhsaW5rOmhyZWY9IiNEIi8+JiN4YTsgICAgPC9nPiYjeGE7ICAgIDxnIGZpbGw9IiMxZTFlMWUiPiYjeGE7ICAgICAgICA8dXNlIG9wYWNpdHk9Ii4yNSIgeGxpbms6aHJlZj0iI0IiLz4mI3hhOyAgICAgICAgPHVzZSBvcGFjaXR5PSIuMjUiIHhsaW5rOmhyZWY9IiNDIi8+JiN4YTsgICAgICAgIDx1c2Ugb3BhY2l0eT0iLjI1IiB4bGluazpocmVmPSIjRCIvPiYjeGE7ICAgIDwvZz4mI3hhOyAgICA8cGF0aCBmaWxsPSIjNzA2ZDZkIiBkPSJNNDguNjI4IDguODg3YzEuODMuNzUgMS44MyAxLjk2NSAwIDIuNzE0bC0yMC4zMTYgOC4zMjRjLTEuODMuNzUtNC43OTUuNzUtNi42MjUgMEwxLjM3MiAxMS42Yy0xLjgzLS43NS0xLjgzLTEuOTY1IDAtMi43MTRMMjEuNjg4LjU2M2MxLjgzLS43NSA0Ljc5NS0uNzUgNi42MjUgMGwyMC4zMTUgOC4zMjR6Ii8+JiN4YTsgICAgPHBhdGggZmlsbD0iI2ZmZiIgZD0iTTE4Ljc0IDExLjgxM2MtMi4zMiAxLjAzLTYuMDc4IDEuMDMtOC4zOTYgMHMtMi4zMi0yLjcwMyAwLTMuNzM1IDYuMDc4LTEuMDMgOC4zOTYgMCAyLjMyIDIuNzA0IDAgMy43MzV6bS0xLjU3MyAyLjY1N2wxMS44OTgtMS40MTgtMy4xODggNS4yOTJ6Ii8+JiN4YTsgICAgPGcgZmlsbD0iIzFlMWUxZSI+JiN4YTsgICAgICAgIDxwYXRoIG9wYWNpdHk9Ii4yNSIgZD0iTTQyLjkyNiA5Ljk3NEwzNS44IDEzLjEzOGwtNy4xMTUtMy4xNjVMMzUuOCA2LjgxeiIvPiYjeGE7ICAgICAgICA8cGF0aCBvcGFjaXR5PSIuMjUiIGQ9Ik0zNS44IDEzLjEzOGwtNy4xMTUtMy4xNjVMMzUuOCA2LjgxeiIvPiYjeGE7ICAgIDwvZz4mI3hhOyAgICA8cGF0aCBmaWxsPSIjZmZmIiBkPSJNMjEuNjYgMi41NTJsMy40OTUgMS40MjUgNC4zMTQtLjg3NC0xLjk2NiAxLjkxOCAzLjIwMyAxLjU1NS00LjctLjI0LTIuMzM1IDEuODM2LS45NDUtMi4wNjctNC42NDUtLjQyIDQuMTI2LTEuMDM4eiIvPiYjeGE7ICAgIDxkZWZzPiYjeGE7ICAgICAgICA8cGF0aCBkPSJNLjAxIDMxLjc3Yy0uMDg1LjUzMi4zNyAxLjA3NiAxLjM2MiAxLjQ4M2wyMC4zMTYgOC4zMjRjMS44My43NSA0Ljc5NS43NSA2LjYyNSAwbDIwLjMxNi04LjMyNGMuOTkzLS40MDcgMS40NDctLjk1IDEuMzYyLTEuNDgzbC4wMDUtNC43NjhjLjA2Mi41MjItLjM5NCAxLjA1Mi0xLjM2NyAxLjQ1bC0yMC4zMTYgOC4zMjRjLTEuODMuNzUtNC43OTUuNzUtNi42MjUgMEwxLjM3MiAyOC40NTNDLjMwNCAyOC4wMTUtLjE0IDI3LjQyLjA0IDI2Ljg1bC0uMDMgNC45MnoiIGlkPSJCIi8+JiN4YTsgICAgICAgIDxwYXRoIGQ9Ik0uMDEgMjMuMzQ0Yy0uMDg1LjUzMi4zNyAxLjA3NiAxLjM2MiAxLjQ4M2wyMC4zMTYgOC4zMjRjMS44My43NSA0Ljc5NS43NSA2LjYyNSAwbDIwLjMxNi04LjMyNGMuOTkzLS40MDcgMS40NDctLjk1IDEuMzYyLTEuNDgzbC4wMDUtNC43NjhjLjA2Mi41MjItLjM5NCAxLjA1Mi0xLjM2NyAxLjQ1TDI4LjMxMyAyOC4zNWMtMS44My43NS00Ljc5NS43NS02LjYyNSAwTDEuMzcyIDIwLjAyN0MuMzA0IDE5LjU5LS4xNCAxOC45OTMuMDQgMTguNDIzbC0uMDMgNC45MnoiIGlkPSJDIi8+JiN4YTsgICAgICAgIDxwYXRoIGQ9Ik0uMDEgMTQuOTE4Yy0uMDg1LjUzMi4zNyAxLjA3NiAxLjM2MiAxLjQ4M2wyMC4zMTYgOC4zMjRjMS44My43NSA0Ljc5NS43NSA2LjYyNSAwTDQ4LjYzIDE2LjRjLjk5My0uNDA3IDEuNDQ3LS45NSAxLjM2Mi0xLjQ4M2wuMDA1LTQuNzY4Yy4wNjIuNTIyLS4zOTQgMS4wNTItMS4zNjcgMS40NWwtMjAuMzE2IDguMzI0Yy0xLjgzLjc1LTQuNzk1Ljc1LTYuNjI1IDBMMS4zNzIgMTEuNkMuMzA0IDExLjE2My0uMTQgMTAuNTY3LjA0IDkuOTk3bC0uMDMgNC45MnoiIGlkPSJEIi8+JiN4YTsgICAgPC9kZWZzPiYjeGE7PC9zdmc+;" vertex="1" parent="1">
          <mxGeometry x="326" y="300" width="50" height="42" as="geometry" />
        </mxCell>
        <mxCell id="DaRzOiwz3Ewju9DiCdrb-54" value="Slave 3" style="shape=image;verticalLabelPosition=bottom;labelBackgroundColor=default;verticalAlign=top;aspect=fixed;imageAspect=0;editableCssRules=.*;image=data:image/svg+xml,PHN2ZyB4bWxuczp4bGluaz0iaHR0cDovL3d3dy53My5vcmcvMTk5OS94bGluayIgeG1sbnM9Imh0dHA6Ly93d3cudzMub3JnLzIwMDAvc3ZnIiBoZWlnaHQ9IjQyLjEzOTAwMzc1MzY2MjExIiB3aWR0aD0iNTAuMDAzMDY3MDE2NjAxNTYiIHZpZXdCb3g9Ii0wLjAwMDUwMDA4Mjk2OTY2NTUyNzMgMC4wMDA1MDAwMjMzNjUwMjA3NTIgNTAuMDAzMDY3MDE2NjAxNTYgNDIuMTM5MDAzNzUzNjYyMTEiPiYjeGE7ICAgIDxnIGZpbGw9IiM3MDZkNmQiPiYjeGE7ICAgICAgICA8dXNlIHhsaW5rOmhyZWY9IiNCIi8+JiN4YTsgICAgICAgIDxwYXRoIGQ9Ik00OC42MjggMjUuNzRjMS44My43NSAxLjgzIDEuOTY1IDAgMi43MTRsLTIwLjMxNiA4LjMyNGMtMS44My43NS00Ljc5NS43NS02LjYyNSAwTDEuMzcyIDI4LjQ1M2MtMS44My0uNzUtMS44My0xLjk2NSAwLTIuNzE0bDIwLjMxNi04LjMyNGMxLjgzLS43NSA0Ljc5NS0uNzUgNi42MjUgMGwyMC4zMTUgOC4zMjR6Ii8+JiN4YTsgICAgICAgIDx1c2UgeGxpbms6aHJlZj0iI0MiLz4mI3hhOyAgICAgICAgPHBhdGggZD0iTTQ4LjYyOCAxNy4zMTNjMS44My43NSAxLjgzIDEuOTY1IDAgMi43MTRMMjguMzEyIDI4LjM1Yy0xLjgzLjc1LTQuNzk1Ljc1LTYuNjI1IDBMMS4zNzIgMjAuMDI3Yy0xLjgzLS43NS0xLjgzLTEuOTY1IDAtMi43MTRMMjEuNjg4IDguOTljMS44My0uNzUgNC43OTUtLjc1IDYuNjI1IDBsMjAuMzE1IDguMzI0eiIvPiYjeGE7ICAgICAgICA8dXNlIHhsaW5rOmhyZWY9IiNEIi8+JiN4YTsgICAgPC9nPiYjeGE7ICAgIDxnIGZpbGw9IiMxZTFlMWUiPiYjeGE7ICAgICAgICA8dXNlIG9wYWNpdHk9Ii4yNSIgeGxpbms6aHJlZj0iI0IiLz4mI3hhOyAgICAgICAgPHVzZSBvcGFjaXR5PSIuMjUiIHhsaW5rOmhyZWY9IiNDIi8+JiN4YTsgICAgICAgIDx1c2Ugb3BhY2l0eT0iLjI1IiB4bGluazpocmVmPSIjRCIvPiYjeGE7ICAgIDwvZz4mI3hhOyAgICA8cGF0aCBmaWxsPSIjNzA2ZDZkIiBkPSJNNDguNjI4IDguODg3YzEuODMuNzUgMS44MyAxLjk2NSAwIDIuNzE0bC0yMC4zMTYgOC4zMjRjLTEuODMuNzUtNC43OTUuNzUtNi42MjUgMEwxLjM3MiAxMS42Yy0xLjgzLS43NS0xLjgzLTEuOTY1IDAtMi43MTRMMjEuNjg4LjU2M2MxLjgzLS43NSA0Ljc5NS0uNzUgNi42MjUgMGwyMC4zMTUgOC4zMjR6Ii8+JiN4YTsgICAgPHBhdGggZmlsbD0iI2ZmZiIgZD0iTTE4Ljc0IDExLjgxM2MtMi4zMiAxLjAzLTYuMDc4IDEuMDMtOC4zOTYgMHMtMi4zMi0yLjcwMyAwLTMuNzM1IDYuMDc4LTEuMDMgOC4zOTYgMCAyLjMyIDIuNzA0IDAgMy43MzV6bS0xLjU3MyAyLjY1N2wxMS44OTgtMS40MTgtMy4xODggNS4yOTJ6Ii8+JiN4YTsgICAgPGcgZmlsbD0iIzFlMWUxZSI+JiN4YTsgICAgICAgIDxwYXRoIG9wYWNpdHk9Ii4yNSIgZD0iTTQyLjkyNiA5Ljk3NEwzNS44IDEzLjEzOGwtNy4xMTUtMy4xNjVMMzUuOCA2LjgxeiIvPiYjeGE7ICAgICAgICA8cGF0aCBvcGFjaXR5PSIuMjUiIGQ9Ik0zNS44IDEzLjEzOGwtNy4xMTUtMy4xNjVMMzUuOCA2LjgxeiIvPiYjeGE7ICAgIDwvZz4mI3hhOyAgICA8cGF0aCBmaWxsPSIjZmZmIiBkPSJNMjEuNjYgMi41NTJsMy40OTUgMS40MjUgNC4zMTQtLjg3NC0xLjk2NiAxLjkxOCAzLjIwMyAxLjU1NS00LjctLjI0LTIuMzM1IDEuODM2LS45NDUtMi4wNjctNC42NDUtLjQyIDQuMTI2LTEuMDM4eiIvPiYjeGE7ICAgIDxkZWZzPiYjeGE7ICAgICAgICA8cGF0aCBkPSJNLjAxIDMxLjc3Yy0uMDg1LjUzMi4zNyAxLjA3NiAxLjM2MiAxLjQ4M2wyMC4zMTYgOC4zMjRjMS44My43NSA0Ljc5NS43NSA2LjYyNSAwbDIwLjMxNi04LjMyNGMuOTkzLS40MDcgMS40NDctLjk1IDEuMzYyLTEuNDgzbC4wMDUtNC43NjhjLjA2Mi41MjItLjM5NCAxLjA1Mi0xLjM2NyAxLjQ1bC0yMC4zMTYgOC4zMjRjLTEuODMuNzUtNC43OTUuNzUtNi42MjUgMEwxLjM3MiAyOC40NTNDLjMwNCAyOC4wMTUtLjE0IDI3LjQyLjA0IDI2Ljg1bC0uMDMgNC45MnoiIGlkPSJCIi8+JiN4YTsgICAgICAgIDxwYXRoIGQ9Ik0uMDEgMjMuMzQ0Yy0uMDg1LjUzMi4zNyAxLjA3NiAxLjM2MiAxLjQ4M2wyMC4zMTYgOC4zMjRjMS44My43NSA0Ljc5NS43NSA2LjYyNSAwbDIwLjMxNi04LjMyNGMuOTkzLS40MDcgMS40NDctLjk1IDEuMzYyLTEuNDgzbC4wMDUtNC43NjhjLjA2Mi41MjItLjM5NCAxLjA1Mi0xLjM2NyAxLjQ1TDI4LjMxMyAyOC4zNWMtMS44My43NS00Ljc5NS43NS02LjYyNSAwTDEuMzcyIDIwLjAyN0MuMzA0IDE5LjU5LS4xNCAxOC45OTMuMDQgMTguNDIzbC0uMDMgNC45MnoiIGlkPSJDIi8+JiN4YTsgICAgICAgIDxwYXRoIGQ9Ik0uMDEgMTQuOTE4Yy0uMDg1LjUzMi4zNyAxLjA3NiAxLjM2MiAxLjQ4M2wyMC4zMTYgOC4zMjRjMS44My43NSA0Ljc5NS43NSA2LjYyNSAwTDQ4LjYzIDE2LjRjLjk5My0uNDA3IDEuNDQ3LS45NSAxLjM2Mi0xLjQ4M2wuMDA1LTQuNzY4Yy4wNjIuNTIyLS4zOTQgMS4wNTItMS4zNjcgMS40NWwtMjAuMzE2IDguMzI0Yy0xLjgzLjc1LTQuNzk1Ljc1LTYuNjI1IDBMMS4zNzIgMTEuNkMuMzA0IDExLjE2My0uMTQgMTAuNTY3LjA0IDkuOTk3bC0uMDMgNC45MnoiIGlkPSJEIi8+JiN4YTsgICAgPC9kZWZzPiYjeGE7PC9zdmc+;" vertex="1" parent="1">
          <mxGeometry x="430" y="260" width="50" height="42" as="geometry" />
        </mxCell>
      </root>
    </mxGraphModel>
  </diagram>
</mxfile>
